<svg width="21" height="21" viewBox="0 0 21 21" fill="none" xmlns="http://www.w3.org/2000/svg">
<path d="M14.8617 3.23667L16.5492 1.54917C17.2814 0.816942 18.4686 0.816942 19.2008 1.54917C19.9331 2.28141 19.9331 3.46859 19.2008 4.20083L8.58218 14.8195C8.05351 15.3481 7.40144 15.7368 6.68489 15.9502L4 16.75L4.79978 14.0651C5.01323 13.3486 5.40185 12.6965 5.93052 12.1678L14.8617 3.23667ZM14.8617 3.23667L17.5 5.87499M16 12.75V17.5C16 18.7426 14.9926 19.75 13.75 19.75H3.25C2.00736 19.75 1 18.7426 1 17.5V6.99999C1 5.75735 2.00736 4.74999 3.25 4.74999H8" stroke="#333333" stroke-width="1.5" stroke-linecap="round" stroke-linejoin="round"/>
</svg>
