<svg width="16" height="4" viewBox="0 0 16 4" fill="none" xmlns="http://www.w3.org/2000/svg">
<path d="M2.75 2C2.75 2.41421 2.41421 2.75 2 2.75C1.58579 2.75 1.25 2.41421 1.25 2C1.25 1.58579 1.58579 1.25 2 1.25C2.41421 1.25 2.75 1.58579 2.75 2Z" stroke="#845EF1" stroke-width="1.5" stroke-linecap="round" stroke-linejoin="round"/>
<path d="M8.75 2C8.75 2.41421 8.41421 2.75 8 2.75C7.58579 2.75 7.25 2.41421 7.25 2C7.25 1.58579 7.58579 1.25 8 1.25C8.41421 1.25 8.75 1.58579 8.75 2Z" stroke="#845EF1" stroke-width="1.5" stroke-linecap="round" stroke-linejoin="round"/>
<path d="M14.75 2C14.75 2.41421 14.4142 2.75 14 2.75C13.5858 2.75 13.25 2.41421 13.25 2C13.25 1.58579 13.5858 1.25 14 1.25C14.4142 1.25 14.75 1.58579 14.75 2Z" stroke="#845EF1" stroke-width="1.5" stroke-linecap="round" stroke-linejoin="round"/>
</svg>
