<svg width="19" height="22" viewBox="0 0 19 22" fill="none" xmlns="http://www.w3.org/2000/svg">
<path d="M11.9904 7.75L11.6442 16.75M6.85577 16.75L6.50962 7.75M16.4776 4.54057C16.8196 4.59221 17.1604 4.64747 17.5 4.70629M16.4776 4.54057L15.4098 18.4226C15.3196 19.5948 14.3421 20.5 13.1664 20.5H5.33357C4.15786 20.5 3.18037 19.5948 3.0902 18.4226L2.02235 4.54057M16.4776 4.54057C15.3312 4.36744 14.1715 4.23485 13 4.14432M1 4.70629C1.33957 4.64747 1.68037 4.59221 2.02235 4.54057M2.02235 4.54057C3.16878 4.36744 4.32849 4.23485 5.5 4.14432M13 4.14432V3.22819C13 2.04882 12.0893 1.06423 10.9106 1.02652C10.3592 1.00889 9.80565 1 9.25 1C8.69435 1 8.14078 1.00889 7.58942 1.02652C6.41065 1.06423 5.5 2.04882 5.5 3.22819V4.14432M13 4.14432C11.7626 4.0487 10.512 4 9.25 4C7.98803 4 6.73744 4.0487 5.5 4.14432" stroke="#C70000" stroke-width="1.5" stroke-linecap="round" stroke-linejoin="round"/>
</svg>
